<svg width="1363" height="163" viewBox="0 0 1363 163" fill="none" xmlns="http://www.w3.org/2000/svg">
<path d="M0 15C0 6.71573 6.71573 0 15 0H37V163H15C6.71573 163 0 156.284 0 148V15Z" fill="#424242"/>
<rect width="1097" height="163" transform="translate(37)" fill="#F0F0F0"/>
<path d="M101.906 53.9219L94.3945 51.2383V48.0859L104.602 52.375V54.6367L101.906 53.9219ZM94.3945 56.1719L101.918 53.4297L104.602 52.7852V55.0352L94.3945 59.3242V56.1719ZM116.414 43.9375V61H112.898V43.9375H116.414ZM123.211 51.2266V53.9688H115.453V51.2266H123.211ZM124.031 43.9375V46.6914H115.453V43.9375H124.031ZM128.93 51.0859V61H125.555V48.3203H128.73L128.93 51.0859ZM132.75 48.2383L132.691 51.3672C132.527 51.3438 132.328 51.3242 132.094 51.3086C131.867 51.2852 131.66 51.2734 131.473 51.2734C130.996 51.2734 130.582 51.3359 130.23 51.4609C129.887 51.5781 129.598 51.7539 129.363 51.9883C129.137 52.2227 128.965 52.5078 128.848 52.8438C128.738 53.1797 128.676 53.5625 128.66 53.9922L127.98 53.7812C127.98 52.9609 128.062 52.207 128.227 51.5195C128.391 50.8242 128.629 50.2188 128.941 49.7031C129.262 49.1875 129.652 48.7891 130.113 48.5078C130.574 48.2266 131.102 48.0859 131.695 48.0859C131.883 48.0859 132.074 48.1016 132.27 48.1328C132.465 48.1562 132.625 48.1914 132.75 48.2383ZM137.906 48.3203V61H134.52V48.3203H137.906ZM134.309 45.0156C134.309 44.5234 134.48 44.1172 134.824 43.7969C135.168 43.4766 135.629 43.3164 136.207 43.3164C136.777 43.3164 137.234 43.4766 137.578 43.7969C137.93 44.1172 138.105 44.5234 138.105 45.0156C138.105 45.5078 137.93 45.9141 137.578 46.2344C137.234 46.5547 136.777 46.7148 136.207 46.7148C135.629 46.7148 135.168 46.5547 134.824 46.2344C134.48 45.9141 134.309 45.5078 134.309 45.0156ZM148.184 58.2344V43H151.582V61H148.523L148.184 58.2344ZM140.168 54.8125V54.5664C140.168 53.5977 140.277 52.7188 140.496 51.9297C140.715 51.1328 141.035 50.4492 141.457 49.8789C141.879 49.3086 142.398 48.8672 143.016 48.5547C143.633 48.2422 144.336 48.0859 145.125 48.0859C145.867 48.0859 146.516 48.2422 147.07 48.5547C147.633 48.8672 148.109 49.3125 148.5 49.8906C148.898 50.4609 149.219 51.1367 149.461 51.918C149.703 52.6914 149.879 53.5391 149.988 54.4609V55C149.879 55.8828 149.703 56.7031 149.461 57.4609C149.219 58.2188 148.898 58.8828 148.5 59.4531C148.109 60.0156 147.633 60.4531 147.07 60.7656C146.508 61.0781 145.852 61.2344 145.102 61.2344C144.312 61.2344 143.609 61.0742 142.992 60.7539C142.383 60.4336 141.867 59.9844 141.445 59.4062C141.031 58.8281 140.715 58.1484 140.496 57.3672C140.277 56.5859 140.168 55.7344 140.168 54.8125ZM143.543 54.5664V54.8125C143.543 55.3359 143.582 55.8242 143.66 56.2773C143.746 56.7305 143.883 57.1328 144.07 57.4844C144.266 57.8281 144.516 58.0977 144.82 58.293C145.133 58.4805 145.512 58.5742 145.957 58.5742C146.535 58.5742 147.012 58.4453 147.387 58.1875C147.762 57.9219 148.047 57.5586 148.242 57.0977C148.445 56.6367 148.562 56.1055 148.594 55.5039V53.9688C148.57 53.4766 148.5 53.0352 148.383 52.6445C148.273 52.2461 148.109 51.9062 147.891 51.625C147.68 51.3438 147.414 51.125 147.094 50.9688C146.781 50.8125 146.41 50.7344 145.98 50.7344C145.543 50.7344 145.168 50.8359 144.855 51.0391C144.543 51.2344 144.289 51.5039 144.094 51.8477C143.906 52.1914 143.766 52.5977 143.672 53.0664C143.586 53.5273 143.543 54.0273 143.543 54.5664ZM162.246 48.3203H165.305V60.5781C165.305 61.7344 165.047 62.7148 164.531 63.5195C164.023 64.332 163.312 64.9453 162.398 65.3594C161.484 65.7812 160.422 65.9922 159.211 65.9922C158.68 65.9922 158.117 65.9219 157.523 65.7812C156.938 65.6406 156.375 65.4219 155.836 65.125C155.305 64.8281 154.859 64.4531 154.5 64L155.988 62.0078C156.379 62.4609 156.832 62.8125 157.348 63.0625C157.863 63.3203 158.434 63.4492 159.059 63.4492C159.668 63.4492 160.184 63.3359 160.605 63.1094C161.027 62.8906 161.352 62.5664 161.578 62.1367C161.805 61.7148 161.918 61.2031 161.918 60.6016V51.25L162.246 48.3203ZM153.715 54.8125V54.5664C153.715 53.5977 153.832 52.7188 154.066 51.9297C154.309 51.1328 154.648 50.4492 155.086 49.8789C155.531 49.3086 156.07 48.8672 156.703 48.5547C157.336 48.2422 158.051 48.0859 158.848 48.0859C159.691 48.0859 160.398 48.2422 160.969 48.5547C161.539 48.8672 162.008 49.3125 162.375 49.8906C162.742 50.4609 163.027 51.1367 163.23 51.918C163.441 52.6914 163.605 53.5391 163.723 54.4609V55C163.605 55.8828 163.43 56.7031 163.195 57.4609C162.961 58.2188 162.652 58.8828 162.27 59.4531C161.887 60.0156 161.41 60.4531 160.84 60.7656C160.277 61.0781 159.605 61.2344 158.824 61.2344C158.043 61.2344 157.336 61.0742 156.703 60.7539C156.078 60.4336 155.543 59.9844 155.098 59.4062C154.652 58.8281 154.309 58.1484 154.066 57.3672C153.832 56.5859 153.715 55.7344 153.715 54.8125ZM157.09 54.5664V54.8125C157.09 55.3359 157.141 55.8242 157.242 56.2773C157.344 56.7305 157.5 57.1328 157.711 57.4844C157.93 57.8281 158.199 58.0977 158.52 58.293C158.848 58.4805 159.234 58.5742 159.68 58.5742C160.297 58.5742 160.801 58.4453 161.191 58.1875C161.582 57.9219 161.875 57.5586 162.07 57.0977C162.266 56.6367 162.379 56.1055 162.41 55.5039V53.9688C162.395 53.4766 162.328 53.0352 162.211 52.6445C162.094 52.2461 161.93 51.9062 161.719 51.625C161.508 51.3438 161.234 51.125 160.898 50.9688C160.562 50.8125 160.164 50.7344 159.703 50.7344C159.258 50.7344 158.871 50.8359 158.543 51.0391C158.223 51.2344 157.953 51.5039 157.734 51.8477C157.523 52.1914 157.363 52.5977 157.254 53.0664C157.145 53.5273 157.09 54.0273 157.09 54.5664ZM173.766 61.2344C172.781 61.2344 171.898 61.0781 171.117 60.7656C170.336 60.4453 169.672 60.0039 169.125 59.4414C168.586 58.8789 168.172 58.2266 167.883 57.4844C167.594 56.7344 167.449 55.9375 167.449 55.0938V54.625C167.449 53.6641 167.586 52.7852 167.859 51.9883C168.133 51.1914 168.523 50.5 169.031 49.9141C169.547 49.3281 170.172 48.8789 170.906 48.5664C171.641 48.2461 172.469 48.0859 173.391 48.0859C174.289 48.0859 175.086 48.2344 175.781 48.5312C176.477 48.8281 177.059 49.25 177.527 49.7969C178.004 50.3438 178.363 51 178.605 51.7656C178.848 52.5234 178.969 53.3672 178.969 54.2969V55.7031H168.891V53.4531H175.652V53.1953C175.652 52.7266 175.566 52.3086 175.395 51.9414C175.23 51.5664 174.98 51.2695 174.645 51.0508C174.309 50.832 173.879 50.7227 173.355 50.7227C172.91 50.7227 172.527 50.8203 172.207 51.0156C171.887 51.2109 171.625 51.4844 171.422 51.8359C171.227 52.1875 171.078 52.6016 170.977 53.0781C170.883 53.5469 170.836 54.0625 170.836 54.625V55.0938C170.836 55.6016 170.906 56.0703 171.047 56.5C171.195 56.9297 171.402 57.3008 171.668 57.6133C171.941 57.9258 172.27 58.168 172.652 58.3398C173.043 58.5117 173.484 58.5977 173.977 58.5977C174.586 58.5977 175.152 58.4805 175.676 58.2461C176.207 58.0039 176.664 57.6406 177.047 57.1562L178.688 58.9375C178.422 59.3203 178.059 59.6875 177.598 60.0391C177.145 60.3906 176.598 60.6797 175.957 60.9062C175.316 61.125 174.586 61.2344 173.766 61.2344ZM187.102 48.3203V50.7109H179.719V48.3203H187.102ZM181.547 45.1914H184.922V57.1797C184.922 57.5469 184.969 57.8281 185.062 58.0234C185.164 58.2188 185.312 58.3555 185.508 58.4336C185.703 58.5039 185.949 58.5391 186.246 58.5391C186.457 58.5391 186.645 58.5312 186.809 58.5156C186.98 58.4922 187.125 58.4688 187.242 58.4453L187.254 60.9297C186.965 61.0234 186.652 61.0977 186.316 61.1523C185.98 61.207 185.609 61.2344 185.203 61.2344C184.461 61.2344 183.812 61.1133 183.258 60.8711C182.711 60.6211 182.289 60.2227 181.992 59.6758C181.695 59.1289 181.547 58.4102 181.547 57.5195V45.1914Z" fill="#888888"/>
<path d="M106.688 119H99.1172L99.1641 112.672H106.688C108.25 112.672 109.57 112.297 110.648 111.547C111.742 110.797 112.57 109.68 113.133 108.195C113.711 106.695 114 104.852 114 102.664V101.188C114 99.5469 113.836 98.1094 113.508 96.875C113.195 95.625 112.727 94.5859 112.102 93.7578C111.477 92.9141 110.695 92.2812 109.758 91.8594C108.836 91.4375 107.773 91.2266 106.57 91.2266H98.9766V84.875H106.57C108.883 84.875 111 85.2734 112.922 86.0703C114.859 86.8516 116.531 87.9766 117.938 89.4453C119.359 90.8984 120.453 92.625 121.219 94.625C122 96.6094 122.391 98.8125 122.391 101.234V102.664C122.391 105.07 122 107.273 121.219 109.273C120.453 111.273 119.367 113 117.961 114.453C116.555 115.906 114.891 117.031 112.969 117.828C111.062 118.609 108.969 119 106.688 119ZM103.828 84.875V119H95.6016V84.875H103.828ZM138.586 119.469C136.523 119.469 134.68 119.148 133.055 118.508C131.43 117.852 130.055 116.953 128.93 115.812C127.82 114.672 126.969 113.359 126.375 111.875C125.797 110.391 125.508 108.82 125.508 107.164V106.273C125.508 104.414 125.766 102.695 126.281 101.117C126.797 99.5234 127.562 98.1328 128.578 96.9453C129.594 95.7578 130.867 94.8359 132.398 94.1797C133.93 93.5078 135.711 93.1719 137.742 93.1719C139.539 93.1719 141.148 93.4609 142.57 94.0391C143.992 94.6172 145.195 95.4453 146.18 96.5234C147.18 97.6016 147.938 98.9062 148.453 100.438C148.984 101.969 149.25 103.688 149.25 105.594V108.805H128.531V103.859H141.539V103.25C141.555 102.406 141.406 101.688 141.094 101.094C140.797 100.5 140.359 100.047 139.781 99.7344C139.203 99.4219 138.5 99.2656 137.672 99.2656C136.812 99.2656 136.102 99.4531 135.539 99.8281C134.992 100.203 134.562 100.719 134.25 101.375C133.953 102.016 133.742 102.758 133.617 103.602C133.492 104.445 133.43 105.336 133.43 106.273V107.164C133.43 108.102 133.555 108.953 133.805 109.719C134.07 110.484 134.445 111.141 134.93 111.688C135.43 112.219 136.023 112.633 136.711 112.93C137.414 113.227 138.211 113.375 139.102 113.375C140.18 113.375 141.242 113.172 142.289 112.766C143.336 112.359 144.234 111.688 144.984 110.75L148.57 115.016C148.055 115.75 147.32 116.461 146.367 117.148C145.43 117.836 144.305 118.398 142.992 118.836C141.68 119.258 140.211 119.469 138.586 119.469ZM160.43 99.0078V119H152.531V93.6406H159.938L160.43 99.0078ZM159.469 105.453L157.664 105.5C157.664 103.719 157.875 102.078 158.297 100.578C158.719 99.0781 159.344 97.7734 160.172 96.6641C161 95.5547 162.016 94.6953 163.219 94.0859C164.438 93.4766 165.844 93.1719 167.438 93.1719C168.547 93.1719 169.555 93.3438 170.461 93.6875C171.367 94.0156 172.148 94.5391 172.805 95.2578C173.461 95.9609 173.961 96.8828 174.305 98.0234C174.664 99.1484 174.844 100.5 174.844 102.078V119H166.945V103.086C166.945 102.008 166.82 101.195 166.57 100.648C166.336 100.102 165.992 99.7344 165.539 99.5469C165.086 99.3594 164.531 99.2656 163.875 99.2656C163.188 99.2656 162.57 99.4219 162.023 99.7344C161.477 100.047 161.008 100.484 160.617 101.047C160.242 101.594 159.953 102.242 159.75 102.992C159.562 103.742 159.469 104.562 159.469 105.453ZM173.953 105.453L171.75 105.5C171.75 103.719 171.945 102.078 172.336 100.578C172.742 99.0781 173.344 97.7734 174.141 96.6641C174.953 95.5547 175.961 94.6953 177.164 94.0859C178.367 93.4766 179.766 93.1719 181.359 93.1719C182.516 93.1719 183.578 93.3438 184.547 93.6875C185.516 94.0312 186.352 94.5859 187.055 95.3516C187.758 96.1172 188.305 97.1328 188.695 98.3984C189.086 99.6484 189.281 101.195 189.281 103.039V119H181.359V103.039C181.359 101.992 181.234 101.203 180.984 100.672C180.75 100.125 180.406 99.7578 179.953 99.5703C179.5 99.3672 178.961 99.2656 178.336 99.2656C177.586 99.2656 176.938 99.4219 176.391 99.7344C175.844 100.047 175.383 100.484 175.008 101.047C174.648 101.594 174.383 102.242 174.211 102.992C174.039 103.742 173.953 104.562 173.953 105.453ZM192.82 106.578V106.086C192.82 104.227 193.086 102.516 193.617 100.953C194.148 99.375 194.93 98.0078 195.961 96.8516C196.992 95.6953 198.266 94.7969 199.781 94.1562C201.297 93.5 203.047 93.1719 205.031 93.1719C207.031 93.1719 208.789 93.5 210.305 94.1562C211.836 94.7969 213.117 95.6953 214.148 96.8516C215.18 98.0078 215.961 99.375 216.492 100.953C217.023 102.516 217.289 104.227 217.289 106.086V106.578C217.289 108.422 217.023 110.133 216.492 111.711C215.961 113.273 215.18 114.641 214.148 115.812C213.117 116.969 211.844 117.867 210.328 118.508C208.812 119.148 207.062 119.469 205.078 119.469C203.094 119.469 201.336 119.148 199.805 118.508C198.273 117.867 196.992 116.969 195.961 115.812C194.93 114.641 194.148 113.273 193.617 111.711C193.086 110.133 192.82 108.422 192.82 106.578ZM200.719 106.086V106.578C200.719 107.531 200.789 108.422 200.93 109.25C201.07 110.078 201.305 110.805 201.633 111.43C201.961 112.039 202.406 112.516 202.969 112.859C203.531 113.203 204.234 113.375 205.078 113.375C205.906 113.375 206.594 113.203 207.141 112.859C207.703 112.516 208.148 112.039 208.477 111.43C208.805 110.805 209.039 110.078 209.18 109.25C209.32 108.422 209.391 107.531 209.391 106.578V106.086C209.391 105.164 209.32 104.297 209.18 103.484C209.039 102.656 208.805 101.93 208.477 101.305C208.148 100.664 207.703 100.164 207.141 99.8047C206.578 99.4453 205.875 99.2656 205.031 99.2656C204.203 99.2656 203.508 99.4453 202.945 99.8047C202.398 100.164 201.961 100.664 201.633 101.305C201.305 101.93 201.07 102.656 200.93 103.484C200.789 104.297 200.719 105.164 200.719 106.086Z" fill="black"/>
<path d="M1134 0H1348C1356.28 0 1363 6.71573 1363 15V148C1363 156.284 1356.28 163 1348 163H1134V0Z" fill="#033BB5"/>
<path d="M1280.07 47.5H1216.93L1214.5 49.9286V113.071L1216.93 115.5H1280.07L1282.5 113.071V49.9286L1280.07 47.5ZM1277.64 110.643H1233.93V100.929H1245.1C1246.56 103.843 1249.96 105.786 1253.36 105.786C1258.7 105.786 1263.07 101.414 1263.07 96.0714C1263.07 90.7286 1258.7 86.3571 1253.36 86.3571C1248.01 86.3571 1243.64 90.7286 1243.64 96.0714H1229.07V110.643H1219.36V52.3571H1229.07V63.5286C1226.16 64.9857 1224.21 68.3857 1224.21 71.7857C1224.21 77.1286 1228.59 81.5 1233.93 81.5C1239.27 81.5 1243.64 77.1286 1243.64 71.7857H1253.36C1253.36 77.1286 1257.73 81.5 1263.07 81.5C1268.41 81.5 1272.79 77.1286 1272.79 71.7857C1272.79 66.4429 1268.41 62.0714 1263.07 62.0714C1259.67 62.0714 1256.27 64.0143 1254.81 66.9286H1242.19C1240.73 64.0143 1237.33 62.0714 1233.93 62.0714V52.3571H1277.64V110.643ZM1248.5 96.0714C1248.5 93.1571 1250.44 91.2143 1253.36 91.2143C1256.27 91.2143 1258.21 93.1571 1258.21 96.0714C1258.21 98.9857 1256.27 100.929 1253.36 100.929C1250.44 100.929 1248.5 98.9857 1248.5 96.0714ZM1233.93 66.9286C1236.84 66.9286 1238.79 68.8714 1238.79 71.7857C1238.79 74.7 1236.84 76.6429 1233.93 76.6429C1231.01 76.6429 1229.07 74.7 1229.07 71.7857C1229.07 68.8714 1231.01 66.9286 1233.93 66.9286ZM1263.07 66.9286C1265.99 66.9286 1267.93 68.8714 1267.93 71.7857C1267.93 74.7 1265.99 76.6429 1263.07 76.6429C1260.16 76.6429 1258.21 74.7 1258.21 71.7857C1258.21 68.8714 1260.16 66.9286 1263.07 66.9286Z" fill="white"/>
</svg>
